<?xml version="1.0" encoding="UTF-8"?><svg id="Layer_1" xmlns="http://www.w3.org/2000/svg" viewBox="0 0 600 600"><defs><style>.cls-1,.cls-2{fill:none;}.cls-1,.cls-2,.cls-3,.cls-4{stroke-linejoin:round;stroke-width:16px;}.cls-1,.cls-3,.cls-4{stroke:#000;}.cls-2{stroke:#fff;}.cls-5{fill:#56efff;}.cls-3{fill:#fff;}</style></defs><rect class="cls-5" width="600" height="600" rx="50" ry="50"/><polygon class="cls-4" points="156.03 149.66 506.64 149.66 476.74 491.38 126.13 491.38 156.03 149.66"/><polygon class="cls-3" points="123.26 108.62 474.72 108.62 443.97 460.08 92.51 460.08 123.26 108.62"/><polygon class="cls-4" points="454.95 334.65 103.48 334.65 112.23 234.65 463.7 234.65 454.95 334.65"/><path class="cls-3" d="m191.26,195.75h0c-12.59,0-21.9-10.2-20.8-22.79h0c1.1-12.59,12.2-22.79,24.78-22.79h0c12.59,0,21.9,10.2,20.8,22.79h0c-1.1,12.59-12.2,22.79-24.78,22.79Z"/><line class="cls-1" x1="257.45" y1="172.96" x2="410.03" y2="172.96"/><path class="cls-2" d="m181.48,307.52h0c-12.59,0-21.9-10.2-20.8-22.79h0c1.1-12.59,12.2-22.79,24.78-22.79h0c12.59,0,21.9,10.2,20.8,22.79h0c-1.1,12.59-12.2,22.79-24.78,22.79Z"/><line class="cls-2" x1="247.67" y1="284.73" x2="400.25" y2="284.73"/><path class="cls-3" d="m171.62,420.16h0c-12.59,0-21.9-10.2-20.8-22.79h0c1.1-12.59,12.2-22.79,24.78-22.79h0c12.59,0,21.9,10.2,20.8,22.79h0c-1.1,12.59-12.2,22.79-24.78,22.79Z"/><line class="cls-1" x1="237.81" y1="397.37" x2="390.39" y2="397.37"/></svg>